<?xml version="1.0" encoding="UTF-8"?>
<svg id="Layer_1" data-name="Layer 1" xmlns="http://www.w3.org/2000/svg" viewBox="0 0 216 217.04">
  <defs>
    <style>
      .cls-1 {
        fill: #25d366;
        fill-rule: evenodd;
      }
    </style>
  </defs>
  <path class="cls-1" d="m184.53,31.54C164.23,11.21,137.22.01,108.45,0,49.17,0,.92,48.24.9,107.54c-.01,18.96,4.95,37.46,14.36,53.77L0,217.04l57.01-14.95c15.71,8.57,33.4,13.08,51.39,13.09h.05c59.27,0,107.53-48.25,107.55-107.55.01-28.74-11.16-55.76-31.47-76.08h0Zm-76.07,165.47h-.04c-16.04,0-31.77-4.32-45.5-12.46l-3.26-1.94-33.83,8.87,9.03-32.99-2.12-3.38c-8.95-14.23-13.68-30.68-13.67-47.57.02-49.28,40.12-89.38,89.43-89.38,23.88.01,46.32,9.32,63.2,26.22,16.88,16.89,26.17,39.36,26.16,63.24-.02,49.29-40.12,89.39-89.39,89.39h0Zm49.03-66.95c-2.69-1.35-15.9-7.84-18.36-8.74-2.46-.9-4.25-1.35-6.04,1.35-1.79,2.69-6.94,8.75-8.51,10.54-1.57,1.79-3.14,2.02-5.82.67-2.69-1.35-11.34-4.18-21.61-13.34-7.99-7.13-13.38-15.92-14.95-18.62-1.57-2.69-.17-4.15,1.18-5.48,1.21-1.21,2.69-3.14,4.03-4.71,1.35-1.57,1.79-2.69,2.69-4.48.9-1.79.45-3.36-.22-4.71-.67-1.35-6.04-14.57-8.29-19.95-2.18-5.24-4.4-4.53-6.04-4.62-1.57-.08-3.36-.09-5.15-.09s-4.7.67-7.17,3.36c-2.46,2.69-9.41,9.19-9.41,22.42s9.63,26.01,10.97,27.8c1.35,1.79,18.95,28.94,45.91,40.58,6.41,2.77,11.42,4.42,15.32,5.66,6.44,2.05,12.29,1.76,16.92,1.07,5.16-.77,15.9-6.5,18.14-12.78,2.24-6.28,2.24-11.66,1.57-12.78s-2.46-1.79-5.15-3.14h0Z"/>
</svg>
